<?xml version="1.0" standalone="no"?>
<!DOCTYPE svg PUBLIC "-//W3C//DTD SVG 20010904//EN"
 "http://www.w3.org/TR/2001/REC-SVG-20010904/DTD/svg10.dtd">
<svg version="1.0" xmlns="http://www.w3.org/2000/svg"
 width="720.000000pt" height="720.000000pt" viewBox="0 0 720.000000 720.000000"
 preserveAspectRatio="xMidYMid meet">
<metadata>
Created by potrace 1.14, written by Peter Selinger 2001-2017
</metadata>
<g transform="translate(0.000000,720.000000) scale(0.100000,-0.100000)"
fill="#000000" stroke="none">
<path d="M2855 5008 c-36 -19 -55 -52 -55 -95 0 -35 6 -48 35 -76 l35 -34 0
-120 0 -121 79 -63 80 -64 0 -151 1 -152 45 -54 45 -55 0 -101 0 -100 -35 -35
c-47 -47 -49 -104 -6 -148 41 -40 106 -41 145 -2 48 48 47 106 -5 154 -29 27
-29 27 -29 145 l0 118 -42 50 -43 50 -3 288 c-3 271 -2 288 15 288 27 0 113
-58 113 -76 0 -8 -16 -30 -35 -48 -30 -28 -35 -40 -35 -78 0 -64 37 -98 106
-98 56 0 87 22 99 72 9 37 -11 93 -40 112 -18 12 -25 27 -27 58 -3 39 -6 44
-66 80 -122 75 -159 90 -181 78 -19 -10 -21 -21 -23 -156 l-3 -145 -42 36 -43
37 0 104 c0 105 0 105 30 131 26 22 30 31 30 78 0 47 -4 56 -31 79 -33 28 -79
34 -114 14z m59 -64 c21 -8 21 -50 0 -58 -32 -12 -57 27 -32 52 14 14 12 14
32 6z m374 -417 c3 -23 0 -27 -23 -27 -30 0 -43 24 -25 46 19 22 45 13 48 -19z
m-109 -805 c12 -22 -3 -42 -30 -42 -23 0 -32 15 -24 40 8 25 41 26 54 2z"/>
<path d="M3502 5008 c-8 -8 -12 -53 -12 -136 l0 -124 64 -67 65 -66 94 -3 c88
-4 95 -2 124 22 23 20 42 26 76 26 39 0 49 5 76 35 41 47 42 93 3 136 -23 26
-35 31 -75 31 -69 1 -100 -31 -107 -110 l-5 -57 -76 -3 -77 -3 -46 48 -46 48
2 80 3 80 100 -1 c125 0 209 -17 302 -59 115 -53 230 -151 272 -232 11 -21 10
-23 -18 -23 -20 0 -40 11 -64 35 -29 29 -42 35 -77 35 -60 0 -100 -41 -100
-103 0 -37 5 -50 30 -74 l30 -28 0 -117 0 -118 -103 0 c-67 0 -107 -4 -115
-12 -7 -7 -12 -43 -12 -90 0 -71 -2 -78 -20 -78 -18 0 -20 7 -20 86 l0 85 -45
41 -45 41 0 84 0 83 48 0 c59 0 72 -12 72 -68 0 -120 176 -144 206 -28 17 67
-32 126 -104 126 -32 0 -52 6 -67 20 -17 16 -36 20 -119 21 -73 1 -101 -2
-107 -12 -5 -8 -9 -67 -9 -133 l0 -119 50 -45 50 -45 0 -69 0 -68 -58 0 -57 0
-123 -123 -124 -124 0 -111 0 -111 -34 -35 c-37 -38 -43 -74 -22 -121 32 -71
154 -71 186 0 22 47 15 83 -23 122 l-35 36 0 95 0 95 102 103 101 104 261 2
261 3 47 90 c39 73 47 100 48 143 l0 52 50 0 50 0 0 -60 c0 -39 -6 -70 -16
-85 -23 -35 -15 -78 45 -234 28 -73 51 -137 51 -142 0 -5 -26 -9 -57 -9 -81 0
-90 -8 -76 -62 6 -24 15 -51 18 -60 5 -13 0 -19 -22 -24 -58 -14 -66 -37 -31
-86 21 -30 21 -31 3 -44 -14 -10 -21 -33 -26 -81 -5 -53 -12 -71 -30 -86 -67
-54 -357 45 -501 172 -59 53 -92 118 -98 200 -6 71 -25 96 -54 72 -24 -20 -22
-136 4 -194 71 -159 349 -322 570 -334 72 -4 90 -1 116 15 37 24 63 75 71 142
4 34 12 54 23 60 27 14 32 38 15 70 -15 29 -14 30 16 45 28 15 30 20 24 51 -3
20 -9 42 -12 50 -4 10 3 14 26 14 58 0 101 33 101 76 0 8 -27 87 -60 176 -59
160 -59 160 -42 192 26 48 22 265 -8 370 -72 256 -262 432 -535 496 -100 23
-322 29 -343 8z m438 -243 c0 -31 -26 -43 -46 -23 -20 20 -7 48 22 48 19 0 24
-5 24 -25z m168 -166 c4 -30 -22 -46 -44 -28 -17 14 -18 31 -2 47 19 19 43 9
46 -19z m193 -81 c6 -24 15 -53 20 -66 5 -13 9 -36 9 -52 l0 -30 -78 0 c-75 0
-79 -1 -90 -25 -7 -14 -12 -50 -12 -79 0 -39 -8 -72 -31 -120 l-31 -66 -104 0
-104 0 0 50 0 50 100 0 c140 0 140 0 140 173 l0 134 33 36 c29 32 37 36 84 36
l52 1 12 -42z m-376 -88 c0 -18 -6 -26 -23 -28 -13 -2 -25 3 -28 12 -10 26 4
48 28 44 17 -2 23 -10 23 -28z m-521 -915 c4 -12 -17 -45 -29 -45 -2 0 -10 7
-19 15 -20 20 -10 45 19 45 13 0 25 -7 29 -15z"/>
<path d="M3393 4943 c-10 -3 -13 -40 -13 -135 l0 -129 55 -58 55 -58 0 -197 0
-197 -89 -90 c-48 -49 -91 -89 -95 -89 -3 0 -6 36 -6 80 0 73 2 81 24 96 44
28 56 111 22 153 -6 8 -26 20 -44 28 -68 28 -142 -23 -142 -99 0 -31 7 -46 36
-76 l36 -37 -4 -110 c-6 -122 -1 -153 25 -169 14 -9 39 11 162 134 l145 145 0
233 0 233 -55 58 -55 58 0 110 c0 92 -3 112 -16 117 -18 7 -23 7 -41 -1z
m-105 -686 c6 -29 -16 -48 -39 -34 -19 12 -25 38 -12 51 13 13 48 1 51 -17z"/>
<path d="M2819 4351 c-24 -24 -29 -38 -29 -76 0 -39 5 -51 30 -73 29 -25 30
-30 30 -110 0 -80 -1 -85 -30 -112 -40 -37 -43 -104 -6 -147 21 -24 32 -28 75
-28 37 0 56 5 71 20 44 45 42 130 -5 161 -23 15 -25 22 -25 103 0 83 1 87 30
114 25 24 30 37 30 74 0 62 -40 103 -100 103 -33 0 -48 -6 -71 -29z m99 -67
c4 -29 -23 -51 -43 -34 -16 13 -20 42 -8 54 14 14 48 1 51 -20z m-10 -356 c28
-28 3 -66 -33 -52 -16 6 -19 22 -9 48 7 19 25 21 42 4z"/>
<path d="M3126 2983 c-7 -27 -7 -360 0 -389 5 -21 11 -25 38 -22 l31 3 5 144
5 144 100 -144 c97 -138 102 -144 135 -144 l35 0 0 210 0 210 -32 3 c-38 4
-34 19 -37 -160 0 -64 -3 -119 -6 -121 -3 -3 -23 20 -44 51 -22 31 -66 96 -99
145 -54 80 -62 87 -92 87 -24 0 -35 -5 -39 -17z"/>
<path d="M3642 2968 l3 -33 103 -3 c56 -1 102 -6 102 -10 0 -4 -48 -74 -105
-156 -61 -87 -105 -159 -105 -173 l0 -23 163 2 162 3 0 30 0 30 -107 3 -108 3
43 62 c24 34 74 106 111 159 37 54 66 106 64 115 -3 16 -20 18 -166 21 l-163
3 3 -33z"/>
<path d="M3524 2626 c-13 -33 0 -51 36 -51 32 0 35 3 38 33 3 31 2 32 -33 32
-22 0 -38 -6 -41 -14z"/>
<path d="M4012 2608 c3 -30 6 -33 38 -33 32 0 35 2 35 30 0 28 -3 30 -38 33
-38 3 -38 3 -35 -30z"/>
<path d="M2447 2267 c-7 -19 3 -33 30 -41 20 -6 22 -15 25 -84 l3 -77 33 -3
32 -3 0 81 0 81 31 6 c23 4 29 10 27 27 -3 19 -10 21 -89 24 -66 2 -88 0 -92
-11z"/>
<path d="M2680 2170 l0 -110 70 0 c39 0 70 4 70 9 0 28 -14 41 -46 41 -24 0
-34 5 -34 15 0 11 11 15 36 15 33 0 35 2 32 28 -2 23 -8 28 -36 30 -43 4 -37
25 9 32 26 4 34 10 34 25 0 18 -8 20 -67 23 l-68 3 0 -111z"/>
<path d="M2910 2252 c-39 -39 -48 -92 -25 -143 20 -44 38 -52 111 -47 41 3 49
6 49 23 0 17 -8 21 -45 23 -50 4 -60 13 -60 59 0 44 24 65 65 57 28 -5 34 -2
40 15 10 32 -2 41 -56 41 -42 0 -55 -5 -79 -28z"/>
<path d="M3110 2170 l0 -110 30 0 c31 0 33 5 30 53 -1 25 1 27 34 27 35 0 36
-1 36 -40 0 -38 2 -40 30 -40 l30 0 0 110 0 110 -30 0 c-28 0 -30 -2 -30 -41
0 -39 -1 -40 -32 -37 -18 2 -34 9 -34 16 -1 6 -2 23 -3 37 -1 21 -6 25 -31 25
l-30 0 0 -110z"/>
<path d="M3377 2263 c-4 -15 -2 -171 2 -195 0 -5 12 -8 26 -8 24 0 25 3 25 55
0 30 3 55 8 54 4 0 19 -23 33 -52 25 -49 29 -52 68 -55 l41 -3 0 111 0 111
-27 -3 c-26 -3 -28 -7 -33 -62 l-5 -59 -34 62 c-31 55 -38 61 -67 61 -23 0
-34 -5 -37 -17z"/>
<path d="M3677 2252 c-23 -24 -27 -37 -27 -84 0 -41 5 -62 21 -82 18 -23 27
-26 84 -26 57 0 66 3 84 26 28 35 36 87 21 127 -20 49 -48 67 -106 67 -42 0
-55 -4 -77 -28z m97 -28 c20 -8 31 -66 17 -93 -14 -25 -66 -29 -75 -5 -11 29
-6 72 10 88 17 17 25 19 48 10z"/>
<path d="M3929 2258 c-1 -21 0 -141 1 -180 0 -16 10 -18 76 -18 72 0 75 1 72
23 -2 18 -10 23 -45 25 l-43 3 0 85 0 84 -30 0 c-24 0 -30 -4 -31 -22z"/>
<path d="M4163 2265 c-30 -21 -47 -85 -34 -131 17 -61 36 -74 107 -74 56 0 65
3 83 26 32 40 29 123 -5 163 -23 27 -32 31 -78 31 -30 0 -61 -6 -73 -15z m94
-43 c36 -23 20 -112 -20 -112 -32 0 -47 18 -47 56 0 48 35 77 67 56z"/>
<path d="M4434 2246 c-28 -28 -34 -42 -34 -75 0 -47 21 -95 45 -105 9 -3 45
-6 80 -6 69 0 75 6 75 76 0 41 -19 56 -67 52 -30 -2 -39 -7 -41 -25 -2 -14 3
-23 17 -28 31 -9 25 -27 -6 -23 -26 3 -28 7 -31 50 -3 39 0 49 18 58 12 6 34
9 49 5 31 -7 57 15 47 40 -4 11 -21 15 -62 15 -50 0 -59 -3 -90 -34z"/>
<path d="M4640 2271 c0 -6 12 -32 27 -58 14 -26 29 -70 32 -98 6 -48 8 -50 39
-53 32 -3 32 -3 32 40 1 28 11 62 30 98 37 67 37 80 5 80 -19 0 -31 -10 -47
-36 l-21 -36 -19 36 c-15 29 -24 36 -48 36 -17 0 -30 -4 -30 -9z"/>
</g>
</svg>
